<svg version="1.1" xmlns="http://www.w3.org/2000/svg" xmlns:xlink="http://www.w3.org/1999/xlink" width="902" height="1175"><defs/><g><g/><g/><g/><g/><g/><g/><g/><g/><g/><g/><g/><g/><g/><g/><g/><g/><g/><g/><g/><g/><g/><g/><g/><g/><g/><g/><g/><g/><g/><g/><g/><g/><g/><g/><g/><g/><g/><g><rect fill="white" stroke="none" x="0" y="0" width="902" height="1175"/></g><g><text fill="black" stroke="none" font-family="sans-serif" font-size="13.5pt" font-style="normal" font-weight="normal" text-decoration="normal" x="380.23170203125" y="21.002400000000005" text-anchor="start" dominant-baseline="alphabetic">Stainless Pipeline</text></g><g><path fill="none" stroke="black" paint-order="fill stroke markers" d=" M 86.96223843749999 111.172704 L 86.96223843749999 1175.294304000001" stroke-miterlimit="10" stroke-width="1.1668" stroke-dasharray="10.770461538461538,4.6672"/><path fill="none" stroke="black" paint-order="fill stroke markers" d=" M 218.3287821875 111.172704 L 218.3287821875 1175.294304000001" stroke-miterlimit="10" stroke-width="1.1668" stroke-dasharray="10.770461538461538,4.6672"/><path fill="none" stroke="black" paint-order="fill stroke markers" d=" M 343.0273571875 111.172704 L 343.0273571875 1175.294304000001" stroke-miterlimit="10" stroke-width="1.1668" stroke-dasharray="10.770461538461538,4.6672"/><path fill="none" stroke="black" paint-order="fill stroke markers" d=" M 482.4036665625 111.172704 L 482.4036665625 1175.294304000001" stroke-miterlimit="10" stroke-width="1.1668" stroke-dasharray="10.770461538461538,4.6672"/><path fill="none" stroke="black" paint-order="fill stroke markers" d=" M 657.4715275 111.172704 L 657.4715275 1175.294304000001" stroke-miterlimit="10" stroke-width="1.1668" stroke-dasharray="10.770461538461538,4.6672"/><path fill="none" stroke="black" paint-order="fill stroke markers" d=" M 825.5385884375 111.172704 L 825.5385884375 1175.294304000001" stroke-miterlimit="10" stroke-width="1.1668" stroke-dasharray="10.770461538461538,4.6672"/></g><g><g><path fill="white" stroke="black" paint-order="fill stroke markers" d=" M 94.9431504375 51.945935999999996 A 7.980911999999999 7.980911999999999 0 1 1 94.94314644704433 51.937955089330146 M 86.96223843749999 59.926848 L 86.96223843749999 77.00880000000001 M 76.88108643749999 66.087552 L 97.0433904375 66.087552 M 86.96223843749999 77.00880000000001 L 76.88108643749999 92.970624 M 86.96223843749999 77.00880000000001 L 97.0433904375 92.970624" stroke-miterlimit="10" stroke-width="2.380272" stroke-dasharray=""/></g><g><g/><text fill="black" stroke="none" font-family="sans-serif" font-size="9pt" font-style="normal" font-weight="normal" text-decoration="normal" x="74.29426968749999" y="106.972224" text-anchor="start" dominant-baseline="alphabetic">User</text></g><g><path fill="white" stroke="black" paint-order="fill stroke markers" d=" M 239.1211581875 69.0838944 A 20.792376 20.792376 0 1 1 239.12114779131286 69.06310202746539 M 196.3462701875 91.780488 L 237.9310221875 91.780488" stroke-miterlimit="10" stroke-width="2.380272" stroke-dasharray=""/></g><g><g/><text fill="black" stroke="none" font-family="sans-serif" font-size="9pt" font-style="normal" font-weight="normal" text-decoration="normal" x="194.31413375" y="106.972224" text-anchor="start" dominant-baseline="alphabetic">Frontend</text></g><g><path fill="white" stroke="black" paint-order="fill stroke markers" d=" M 363.8197331875 69.0838944 A 20.792376 20.792376 0 1 1 363.81972279131287 69.06310202746539 M 321.0448451875 91.780488 L 362.6295971875 91.780488" stroke-miterlimit="10" stroke-width="2.380272" stroke-dasharray=""/></g><g><g/><text fill="black" stroke="none" font-family="sans-serif" font-size="9pt" font-style="normal" font-weight="normal" text-decoration="normal" x="319.0214978125" y="106.972224" text-anchor="start" dominant-baseline="alphabetic">Compiler</text></g><g><path fill="white" stroke="black" paint-order="fill stroke markers" d=" M 503.1960425625 70.988112 A 20.792376 20.792376 0 1 1 503.1960321663129 70.96731962746539 M 479.6033465625 50.195736 L 488.0043065625 43.194936 M 479.6033465625 50.195736 L 488.0043065625 57.196535999999995" stroke-miterlimit="10" stroke-width="2.380272" stroke-dasharray=""/></g><g><g/><text fill="black" stroke="none" font-family="sans-serif" font-size="9pt" font-style="normal" font-weight="normal" text-decoration="normal" x="458.728861875" y="106.972224" text-anchor="start" dominant-baseline="alphabetic">CallBack</text></g><g><path fill="steelblue" stroke="black" paint-order="fill stroke markers" d=" M 637.0291915 83.729568 L 637.0291915 54.326208 L 677.9138634999999 54.326208 L 677.9138634999999 83.729568" stroke-miterlimit="10" stroke-width="2.380272" stroke-dasharray=""/><path fill="steelblue" stroke="black" paint-order="fill stroke markers" d=" M 677.9138634999999 53.3040912 L 677.9128413917176 53.3965002198317 L 677.9097751690804 53.48889999883843 L 677.9046651387081 53.581281297119276 L 677.8975118115995 53.6736348766214 L 677.8883159030813 53.76595150206382 L 677.8770783327368 53.85822194186091 L 677.8638002243136 53.95043696904559 L 677.8484829056115 54.04258736219199 L 677.8311279083495 54.13466390633758 L 677.811736968013 54.226657393904674 L 677.7903120236797 54.31855862562118 L 677.7668552178263 54.41035841144051 L 677.741368896114 54.50204757146059 L 677.7138556071534 54.59361693684181 L 677.6843181022507 54.68505735072395 L 677.6527593351318 54.77635966914182 L 677.6191824616469 54.86751476193966 L 677.5835908394555 54.95851351368415 L 677.5459880276902 55.04934682457596 L 677.5063777866008 55.14000561135969 L 677.4647640771784 55.2304808082322 L 677.4211510607591 55.32076336774921 L 677.3755430986085 55.41084426173 L 677.3279447514847 55.500714482160234 L 677.2783607791827 55.59036504209277 L 677.2267961400584 55.67978697654631 L 677.1732559905327 55.768971343401944 L 677.117745684576 55.857909224297295 L 677.0602707731728 55.946591725518395 L 677.0008370037659 56.035009978889015 L 676.9394503196833 56.1231551426575 L 676.8761168595418 56.211018402380944 L 676.8108429566347 56.298590971806576 L 676.743635138298 56.38586409375043 L 676.6745001252576 56.472829040973046 L 676.6034448309571 56.559477117052175 L 676.5304763608667 56.64579965725241 L 676.4556020117725 56.731788029391666 L 676.3788292710473 56.817433634704386 L 676.300165815901 56.902727908701415 L 676.2196195126135 56.987662322026424 L 676.1371984157481 57.07222838130886 L 676.0529107673459 57.15641763001328 L 675.9667649961013 57.24022164928495 L 675.8787697165197 57.323632058791794 L 675.7889337280559 57.406640517562366 L 675.6972660142337 57.489238724819955 L 675.6037757417481 57.57141842081268 L 675.5084722595486 57.65317138763941 L 675.4113650979037 57.73448945007161 L 675.312463967449 57.815364476370775 L 675.2117787582149 57.895788379101695 L 675.1093195386384 57.9757531159411 L 675.0050965545562 58.055250690481955 L 674.8991202281798 58.13427315303305 L 674.7914011570535 58.21281260141397 L 674.6819501129947 58.29086118174534 L 674.5707780410166 58.36841108923417 L 674.4578960582337 58.445454568954325 L 674.3433154527502 58.521983916622034 L 674.2270476825313 58.597991479366314 L 674.109104374257 58.673469656494234 L 673.9894973221598 58.74841090025096 L 673.8682384868454 58.82280771657459 L 673.7453399940961 58.896652665845465 L 673.6208141336589 58.96993836363022 L 673.494673358016 59.04265748142013 L 673.36693028114 59.11480274736402 L 673.2375976772319 59.18636694699541 L 673.1066884794444 59.25734292395399 L 672.9742157785882 59.3277235807012 L 672.8401928218232 59.39750187923002 L 672.704633011333 59.46667084176874 L 672.5675499029859 59.535223551478744 L 672.4289572049786 59.603153153146195 L 672.2888687764652 59.67045285386754 L 672.1472986261718 59.73711592372877 L 672.0042609109958 59.80313569647847 L 671.859769934589 59.86850557019437 L 671.7138401459291 59.933219007943585 L 671.5664861378731 59.99726953843626 L 671.417722645699 60.060650756672715 L 671.2675645456322 60.12335632458395 L 671.1160268533574 60.185379971665434 L 670.9631247225178 60.246715495604136 L 670.8088734431989 60.307356762898785 L 670.6532884403999 60.36729770947317 L 670.4963852724918 60.4265323412826 L 670.3381796296604 60.48505473491325 L 670.1786873323382 60.54285903817452 L 670.0179243296221 60.59993947068426 L 669.8559066976783 60.656290324446786 L 669.692650638135 60.71190596442368 L 669.5281724764621 60.766780829097286 L 669.3624886603387 60.82090943102688 L 669.1956157580084 60.87428635739735 L 669.0275704566224 60.92690627056057 L 668.8583695605707 60.97876390856905 L 668.688029989802 61.02985408570222 L 668.5165687781313 61.080171692984926 L 668.3440030715369 61.12971169869838 L 668.1703501264458 61.178469148883295 L 667.9956273080077 61.22643916783528 L 667.8198520883589 61.27361695859242 L 667.6430420448747 61.31999780341495 L 667.4652148584124 61.36557706425704 L 667.2863883115422 61.41035018323058 L 667.1065802867699 61.45431268306099 L 666.9258087647481 61.497460167534925 L 666.7440918224784 61.539788321939895 L 666.5614476315036 61.58129291349572 L 666.3778944560904 61.62196979177785 L 666.1934506514037 61.661814889132344 L 666.00813466167 61.70082422108267 L 665.821965018334 61.73899388672814 L 665.6349603382049 61.776320069133995 L 665.4471393215947 61.81279903571311 L 665.2585207504487 61.84842713859922 L 665.0691234864669 61.88320081501172 L 664.8789664692176 61.91711658761196 L 664.6880687142443 61.950171064850934 L 664.4964493111634 61.982360941308464 L 664.3041274217553 62.01368299802373 L 664.111122278049 62.04413410281717 L 663.9174531803978 62.07371121060366 L 663.7231394955502 62.10241136369709 L 663.5282006547126 62.13023169210606 L 663.3326561516068 62.15716941382091 L 663.1365255405201 62.18322183509191 L 662.9398284343501 62.20838635069867 L 662.7425845026437 62.232660444210566 L 662.5448134696295 62.2560416882385 L 662.3465351122461 62.27852774467754 L 662.1477692581639 62.300116364940784 L 661.9485357838028 62.3208053901842 L 661.7488546123441 62.34059275152249 L 661.5487457117385 62.35947647023603 L 661.3482290927096 62.377454657968684 L 661.147324806752 62.39452551691664 L 660.9460529441267 62.410687340008245 L 660.7444336318525 62.42593851107465 L 660.5424870316925 62.440277505011466 L 660.3402333381385 62.45370288793124 L 660.1376927763913 62.466213317306874 L 659.9348856003381 62.47780754210586 L 659.7318320905279 62.48848440291536 L 659.5285525521421 62.49824283205822 L 659.3250673129652 62.50708185369963 L 659.1213967213516 62.515000583944804 L 658.9175611441909 62.52199823092732 L 658.7135809648707 62.528074094888304 L 658.5094765812391 62.53322756824643 L 658.3052684035644 62.537458135658646 L 658.100976852494 62.540765374071746 L 657.8966223570129 62.543148952764646 L 657.6922253524004 62.54460863338146 L 657.4878062781866 62.54514426995533 L 657.2833855761085 62.544755808923064 L 657.0789836880659 62.54344328913043 L 656.8746210540775 62.54120684182832 L 656.6703181102363 62.5380466906596 L 656.4660952866664 62.53396315163675 L 656.2619730054798 62.52895663311027 L 656.0579716787348 62.52302763572784 L 655.8541117063941 62.51617675238426 L 655.6504134742847 62.50840466816215 L 655.4468973520604 62.49971216026346 L 655.2435836911637 62.490100097931744 L 655.0404928227913 62.47956944236521 L 654.8376450558608 62.46812124662065 L 654.6350606749797 62.45575665550809 L 654.4327599384175 62.44247690547634 L 654.230763076079 62.42828332448934 L 654.0290902874824 62.413177331893365 L 653.8277617397383 62.39716043827508 L 653.6267975655338 62.38023424531049 L 653.4262178611189 62.362400445604806 L 653.2260426842967 62.34366082252312 L 653.0262920524182 62.32401725001213 L 652.82698594038 62.30347169241273 L 652.6281442786275 62.282026204263545 L 652.4297869511608 62.259682930095515 L 652.2319337935478 62.23644410421744 L 652.034604590939 62.21231205049256 L 651.8378190760903 62.18728918210611 L 651.6415969273893 62.161378001324096 L 651.4459577668873 62.13458109924299 L 651.2509211583374 62.10690115553069 L 651.0565066052377 62.07834093815848 L 650.8627335488817 62.048903303124305 L 650.6696213664136 62.018591194167136 L 650.4771893688905 61.98740764247261 L 650.285456799352 61.95535576636991 L 650.0944428308951 61.92243877101994 L 649.9041665647576 61.8886599480948 L 649.7146470284075 61.854022675448626 L 649.5259031736406 61.81853041677983 L 649.3379538746849 61.782186721284695 L 649.1508179263138 61.744995223302496 L 648.9645140419661 61.706959641952025 L 648.7790608518752 61.66808378075973 L 648.5944769012053 61.62837152727933 L 648.4107806481978 61.58782685270307 L 648.227990462325 61.54645381146463 L 648.0461246224529 61.504256540833666 L 647.8652013150141 61.46123926050207 L 647.6852386321885 61.41740627216201 L 647.5062545700946 61.37276195907582 L 647.3282670269892 61.327310785637586 L 647.1512938014786 61.28105729692678 L 646.9753525907375 61.23400611825374 L 646.8004609887406 61.186161954697106 L 646.6266364845023 61.13752959063338 L 646.4538964603282 61.08811388925842 L 646.2822581900767 61.03791979210121 L 646.1117388374319 60.986952318529625 L 645.9423554541868 60.93521656524855 L 645.7741249785387 60.8827177057902 L 645.6070642333949 60.829460989996775 L 645.4411899246909 60.775451743495466 L 645.276518639719 60.72069536716592 L 645.1130668454707 60.665197336600144 L 644.9508508869893 60.60896320155494 L 644.7898869857352 60.55199858539695 L 644.6301912379646 60.494309184540334 L 644.4717796131191 60.43590076787709 L 644.3146679522291 60.3767791762002 L 644.15887196633 60.316950321619586 L 644.0044072348904 60.25642018697084 L 643.8512892042547 60.19519482521699 L 643.6995331860985 60.13328035884318 L 643.549154355897 60.07068297924445 L 643.4001677514079 60.007408946106615 L 643.2525882711677 59.943464586780244 L 643.1064306730012 59.87885629564799 L 642.9617095725466 59.813590533485126 L 642.8184394417933 59.747673826813475 L 642.6766346076349 59.68111276724878 L 642.5363092504367 59.61391401084152 L 642.3974774026175 59.546084277411346 L 642.2601529472464 59.47763034987508 L 642.1243496166544 59.40855907356842 L 641.9900809910615 59.33887735556144 L 641.8573604972183 59.26859216396788 L 641.7262014070636 59.19771052724833 L 641.5966168363973 59.12623953350738 L 641.4686197435681 59.054186329784855 L 641.3422229281789 58.98155812134109 L 641.2174390298059 58.908362170936385 L 641.0942805267348 58.8346057981048 L 640.9727597347135 58.760296378422154 L 640.8528888057197 58.68544134276849 L 640.7346797267465 58.61004817658499 L 640.6181443186033 58.53412441912545 L 640.5032942347339 58.45767766270234 L 640.3901409600508 58.3807155519276 L 640.2786958097872 58.30324578294818 L 640.1689699283654 58.2252761026764 L 640.060974288282 58.146814308015344 L 639.954719689011 58.06786824507907 L 639.8502167559237 57.98844580840808 L 639.7474759392265 57.908554940179876 L 639.6465075129155 57.82820362941469 L 639.5473215737491 57.74739991117664 L 639.4499280402383 57.666151865770225 L 639.3543366516558 57.58446761793226 L 639.2605569670603 57.502355336019484 L 639.1685983643424 57.419823231191636 L 639.0784700392858 57.33687955659044 L 638.9901810046476 57.253532606514234 L 638.903740089258 57.16979071558856 L 638.8191559371363 57.08566225793274 L 638.7364370066273 57.00115564632242 L 638.6555915695551 56.91627933134834 L 638.576627710396 56.83104180057128 L 638.4995533254703 56.74545157767328 L 638.424376122152 56.65951722160529 L 638.351103618099 56.57324732573133 L 638.2797431405005 56.486650516969085 L 638.2103018253449 56.39973545492727 L 638.1427866167057 56.312510831039646 L 638.0772042660477 56.224985367695936 L 638.0135613315513 56.137167817369516 L 637.9518641774566 56.049066961742255 L 637.892118973428 55.960691610826295 L 637.8343316939358 55.87205060208308 L 637.7785081176601 55.78315279953961 L 637.7246538269117 55.69400709290206 L 637.672774207075 55.60462239666682 L 637.6228744460686 55.515007649229005 L 637.5749595338273 55.425171811988704 L 637.5290342618019 55.33512386845476 L 637.4851032224818 55.24487282334649 L 637.4431708089343 55.154427701693194 L 637.4032412143655 55.06379754793168 L 637.3653184317017 54.97299142500179 L 637.3294062531896 54.882018413440136 L 637.2955082700173 54.790887610472076 L 637.2636278719547 54.69960812910197 L 637.2337682470148 54.60818909720187 L 637.2059323811357 54.5166396565988 L 637.1801230578805 54.42496896216052 L 637.15634285816 54.33318618088009 L 637.1345941599744 54.24130049095915 L 637.1148791381755 54.14932108089011 L 637.0971997642489 54.057257148537346 L 637.0815578061174 53.96511790021736 L 637.0679548279636 53.872912549778206 L 637.0563921900741 53.780650317678095 L 637.0468710487031 53.68834043006334 L 637.0393923559567 53.59599211784579 L 637.033956859698 53.5036146157797 L 637.0305651034721 53.41121716153831 L 637.0292174264517 53.31880899479003 L 637.0299139634036 53.22639935627454 L 637.0326546446744 53.133997486878684 L 637.0374391961984 53.041612626712386 L 637.0442671395244 52.94925401418469 L 637.053137791864 52.856930885079876 L 637.0640502661589 52.76465247163393 L 637.0770034711711 52.67242800161128 L 637.0919961115909 52.58026669738209 L 637.1090266881665 52.488177774999976 L 637.1280934978547 52.39617044328043 L 637.1491946339902 52.30425390287997 L 637.1723279864772 52.21243734537602 L 637.1974912419995 52.12072995234782 L 637.2246818842527 52.029140894458266 L 637.2538971941951 51.9376793305368 L 637.2851342503202 51.846354406663615 L 637.3183899289482 51.75517525525498 L 637.3536609045392 51.66415099415006 L 637.3909436500248 51.573290725699124 L 637.4302344371617 51.48260353585328 L 637.4715293369039 51.39209849325595 L 637.5148242197959 51.301784648335975 L 637.5601147563851 51.21167103240258 L 637.6073964176561 51.12176665674227 L 637.6566644754819 51.03208051171769 L 637.7079140030978 50.94262156586859 L 637.7611398755937 50.85339876501503 L 637.8163367704269 50.76442103136273 L 637.8734991679537 50.67569726261091 L 637.9326213519821 50.587236331062506 L 637.9936974103429 50.49904708273696 L 638.0567212354813 50.41113833648561 L 638.121686525067 50.32351888310982 L 638.1885867826255 50.23619748448192 L 638.2574153181868 50.149182872669 L 638.3281652489544 50.06248374905974 L 638.4008294999944 49.97610878349424 L 638.4754008049422 49.890066613397074 L 638.5518717067295 49.80436584291357 L 638.6302345583297 49.719015042049335 L 638.7104815235231 49.63402274581335 L 638.79260457768 49.5493974533644 L 638.8765955085635 49.46514762716121 L 638.9624459171503 49.3812816921162 L 639.0501472184711 49.297808034752975 L 639.1396906424692 49.21473500236772 L 639.2310672348764 49.13207090219444 L 639.3242678581098 49.04982400057427 L 639.4192831921848 48.968002522128835 L 639.5161037356471 48.88661464893779 L 639.614719806523 48.80566851972063 L 639.7151215432875 48.72517222902283 L 639.8172989058509 48.64513382640637 L 639.9212416765619 48.56556131564482 L 640.02693946123 48.48646265392294 L 640.1343816901648 48.407845751040995 L 640.243557619233 48.32971846862376 L 640.3544563309327 48.25208861933436 L 640.4670667354853 48.17496396609304 L 640.5813775719439 48.09835222130084 L 640.6973774093202 48.02226104606842 L 640.8150546477272 47.946698049449886 L 640.9343975195391 47.87167078768193 L 641.055394090568 47.79718676342819 L 641.178032261258 47.72325342502904 L 641.3022997678938 47.64987816575671 L 641.4281841838286 47.57706832307598 L 641.5556729207256 47.504831177910425 L 641.6847532298174 47.43317395391439 L 641.8154122031806 47.36210381675054 L 641.9476367750267 47.291627873373386 L 642.0814137230087 47.22175317131852 L 642.2167296695435 47.152486697997915 L 642.3535710831491 47.083835380001204 L 642.491924279798 47.01580608240295 L 642.6317754242859 46.94840560807625 L 642.7731105316151 46.881640697012344 L 642.9159154683924 46.81551802564672 L 643.0601759542433 46.750044206191404 L 643.2058775632394 46.68522578597378 L 643.3530057253411 46.62106924678185 L 643.5015457278548 46.55758100421608 L 643.6514827169042 46.49476740704782 L 643.8028016989152 46.43263473658443 L 643.9554875421157 46.371189206041194 L 644.1095249780487 46.31043695991995 L 644.264898603099 46.250384073394684 L 644.4215928800335 46.191036551704016 L 644.579592139555 46.13240032955065 L 644.7388805818694 46.07448127050794 L 644.899442278265 46.017285166433524 L 645.0612611727062 45.96081773689014 L 645.2243210834381 45.905084628573704 L 645.3886057046058 45.85009141474859 L 645.5540986078839 45.79584359469035 L 645.7207832441202 45.74234659313579 L 645.8886429449897 45.68960575974049 L 646.0576609246623 45.63762636854383 L 646.2278202814811 45.58641361744161 L 646.3991039996519 45.535972627666276 L 646.5714949509456 45.48630844327476 L 646.7449758964111 45.43742603064412 L 646.9195294880981 45.389330277974885 L 647.095138270793 45.34202599480224 L 647.2717846837639 45.295517911515084 L 647.4494510625166 45.24981067888298 L 647.6281196405614 45.204908867591115 L 647.8077725511893 45.1608169677832 L 647.988391829259 45.117539388612464 L 648.1699594129932 45.07508045780076 L 648.3524571457848 45.03344442120579 L 648.5358667780126 44.99263544239652 L 648.7201699688662 44.95265760223682 L 648.9053482881802 44.91351489847739 L 649.091383218277 44.875211245355985 L 649.2782561558184 44.83775047320601 L 649.4659484136666 44.80113632807344 L 649.6544412227521 44.7653724713423 L 649.8437157339512 44.730462479368455 L 650.0337530199703 44.696409843122 L 650.2245340772392 44.663217967838186 L 650.4160398278115 44.63089017267689 L 650.6082511212712 44.59942969039068 L 650.8011487366496 44.56883966700157 L 650.9947133843456 44.539123161486415 L 651.1889257080559 44.510283145470986 L 651.3837662867098 44.48232250293287 L 651.579215636412 44.455244029913004 L 651.7752542123903 44.42905043423613 L 651.9718624109505 44.40374433524 L 652.1690205714365 44.3793282635134 L 652.3667089781967 44.35580466064319 L 652.564907862555 44.33317587897002 L 652.7635974047882 44.31144418135322 L 652.9627577361077 44.290611740944435 L 653.1623689406464 44.270680640970355 L 653.3624110574499 44.25165287452435 L 653.5628640824735 44.233530344367225 L 653.7637079705817 44.21631486273689 L 653.9649226375528 44.200008151167154 L 654.1664879620881 44.1846118403156 L 654.3683837878231 44.17012746980046 L 654.5705899253433 44.15655648804674 L 654.7730861542035 44.14390025214129 L 654.9758522249496 44.13216002769716 L 655.1788678611434 44.12133698872701 L 655.3821127613907 44.11143221752572 L 655.5855666013706 44.10244670456215 L 655.7892090358687 44.09438134838011 L 655.9930197008114 44.0872369555085 L 656.1969782153018 44.081014240380654 L 656.4010641836586 44.0757138252629 L 656.605257197455 44.07133624019234 L 656.8095368375598 44.06788192292381 L 657.0138826761792 44.06535121888618 L 657.2182742788995 44.06374438114773 L 657.422691206731 44.0630615703909 L 657.627113018151 44.06330285489621 L 657.8315192711489 44.06446821053539 L 658.0358895252697 44.066557520773856 L 658.2402033436582 44.06957057668233 L 658.4444402951029 44.073507076957725 L 658.648579956079 44.0783666279533 L 658.8526019127902 44.084148743718 L 659.0564857632111 44.09085284604507 L 659.2602111191264 44.09847826452986 L 659.4637576081703 44.107024236636875 L 659.6671048758637 44.11648990777603 L 659.8702325876492 44.1268743313881 L 660.0731204309247 44.13817646903938 L 660.2757481170752 44.150395190525515 L 660.4780953835008 44.163529273984544 L 660.6801419956436 44.17757740601907 L 660.8818677490106 44.19253818182759 L 661.0832524711946 44.20841010534498 L 661.2842760238912 44.22519158939213 L 661.4849183049128 44.24288095583462 L 661.6851592501982 44.26147643575055 L 661.8849788358201 44.28097616960741 L 662.0843570799863 44.301378207448074 L 662.2832740450385 44.32268050908576 L 662.4817098394459 44.344880944308045 L 662.6796446197945 44.36797729308992 L 662.8770585927713 44.39196724581575 L 663.0739320171433 44.41684840351026 L 663.2702452057323 44.4426182780784 L 663.4659785273831 44.46927429255419 L 663.6611124089263 44.49681378135841 L 663.8556273371366 44.52523399056512 L 664.0495038606834 44.55453207817708 L 664.2427225920757 44.58470511440996 L 664.4352642096014 44.615750081985254 L 664.6271094592593 44.64766387643209 L 664.8182391566842 44.68044330639762 L 665.0086341890656 44.71408509396616 L 665.1982755170591 44.74858587498699 L 665.3871441766897 44.78394219941076 L 665.5752212812491 44.82015053163448 L 665.7624880231833 44.857207250855126 L 665.9489256759745 44.89510865143163 L 666.1345155960124 44.93385094325552 L 666.3192392244598 44.973430252129916 L 666.5030780891079 45.01384262015691 L 666.6860138062234 45.05508400613336 L 666.8680280823869 45.09715028595505 L 667.0491027163226 45.14003725302906 L 667.229219600718 45.1837406186944 L 667.4083607240347 45.22825601265094 L 667.5865081723095 45.27357898339637 L 667.7636441309464 45.31970499867139 L 667.9397508864969 45.36662944591291 L 668.1148108284322 45.41434763271531 L 668.288806450904 45.462854787299676 L 668.4617203544951 45.51214605899097 L 668.6335352479592 45.562216518703096 L 668.8042339499502 45.613061159431815 L 668.97379939074 45.664674896755415 L 669.1422146139261 45.71705256934319 L 669.3094627781262 45.77018893947151 L 669.4755271586633 45.824078693547655 L 669.6403911492381 45.87871644264112 L 669.8040382635885 45.934096723022535 L 669.9664521371396 45.99021399671 L 670.1276165286395 46.047062652022916 L 670.2875153217831 46.10463700414313 L 670.4461325268245 46.16293129568341 L 670.6034522821753 46.22193969726316 L 670.7594588559913 46.28165630809142 L 670.9141366477448 46.34207515655686 L 671.0674701897857 46.40319020082499 L 671.2194441488875 46.464995329442296 L 671.3700433277811 46.52748436194743 L 671.5192526666739 46.590651049489225 L 671.6670572447564 46.65448907545155 L 671.813442281694 46.718992056085014 L 671.958393139105 46.7841535411453 L 672.1018953220245 46.849967014538215 L 672.2439344803537 46.916425894971255 L 672.384496410295 46.98352353661176 L 672.5235670557729 47.05125322975148 L 672.6611325098385 47.119608201477554 L 672.797179016061 47.18858161634975 L 672.9316929699033 47.258166577084076 L 673.064660920082 47.328356125242436 L 673.196069569913 47.39914324192851 L 673.3259057786407 47.47052084848962 L 673.4541565627525 47.54248180722459 L 673.5808090972768 47.61501892209751 L 673.7058507170658 47.68812493945734 L 673.8292689180615 47.761792548763275 L 673.9510513585469 47.83601438331576 L 674.0711858603794 47.9107830209932 L 674.1896604102087 47.986090984994135 L 674.3064631606788 48.06193074458491 L 674.421582431612 48.13829471585278 L 674.535006711177 48.21517526246425 L 674.6467246570403 48.29256469642873 L 674.7567250975005 48.3704552788673 L 674.8649970326053 48.44883922078663 L 674.9715296352514 48.52770868385786 L 675.0763122522671 48.607055781200394 L 675.1793344054784 48.68687257817063 L 675.2805857927555 48.76715109315537 L 675.3800562890441 48.84788329837003 L 675.4777359473775 48.92906112066136 L 675.5736149998713 49.010676442314775 L 675.6676838587002 49.092721101866125 L 675.7599331170567 49.17518689491783 L 675.8503535500917 49.258065574959296 L 675.9389361158374 49.34134885419159 L 676.0256719561108 49.42502840435619 L 676.1105523974005 49.509095857567814 L 676.1935689517328 49.593542807151195 L 676.2747133175217 49.67836080848175 L 676.3539773803981 49.763541379830016 L 676.4313532140217 49.84907600320986 L 676.5068330808737 49.93495612523021 L 676.5804094330304 50.021173157950436 L 676.6520749129177 50.107718479739106 L 676.7218223540475 50.19458343613617 L 676.7896447817338 50.281759340718374 L 676.8555354137902 50.36923747596791 L 676.9194876612087 50.457009094144134 L 676.9814951288175 50.54506541815839 L 677.0415516159217 50.63339764245165 L 677.0996511169226 50.72199693387509 L 677.1557878219186 50.81085443257341 L 677.2099561172857 50.899961252870774 L 677.26215058624 50.98930848415942 L 677.3123660093776 51.07888719179067 L 677.3605973651983 51.16868841796841 L 677.4068398306066 51.258703182644865 L 677.4510887813946 51.348922484418566 L 677.493339792704 51.43933730143452 L 677.5335886394689 51.52993859228638 L 677.5718312968382 51.62071729692055 L 677.6080639405782 51.711664337542224 L 677.6422829474543 51.80277061952312 L 677.6744848955947 51.89402703231098 L 677.7046665648312 51.98542445034055 L 677.7328249370221 52.076953733946205 L 677.7589571963537 52.16860573027585 L 677.7830607296218 52.260371274206236 L 677.805133126493 52.35224118925943 L 677.8251721797463 52.444206288520505 L 677.843175885493 52.53625737555615 L 677.8591424433774 52.628385245334385 L 677.8730702567572 52.720580685144995 L 677.8849579328624 52.81283447552084 L 677.8948042829355 52.90513739115975 L 677.9026083223497 52.99748020184708 L 677.9083692707075 53.08985367337873 L 677.9120865519187 53.182248568484496 L 677.9137597942587 53.274655647751885 M 677.9138634999999 82.7074512 L 677.9128413917176 82.7998602198317 L 677.9097751690804 82.89225999883843 L 677.9046651387081 82.98464129711927 L 677.8975118115995 83.0769948766214 L 677.8883159030813 83.1693115020638 L 677.8770783327368 83.26158194186091 L 677.8638002243136 83.35379696904559 L 677.8484829056115 83.44594736219199 L 677.8311279083495 83.53802390633757 L 677.811736968013 83.63001739390467 L 677.7903120236797 83.72191862562117 L 677.7668552178263 83.8137184114405 L 677.741368896114 83.90540757146059 L 677.7138556071534 83.9969769368418 L 677.6843181022507 84.08841735072394 L 677.6527593351318 84.17971966914182 L 677.6191824616469 84.27087476193965 L 677.5835908394555 84.36187351368415 L 677.5459880276902 84.45270682457596 L 677.5063777866008 84.54336561135968 L 677.4647640771784 84.6338408082322 L 677.4211510607591 84.7241233677492 L 677.3755430986085 84.81420426172998 L 677.3279447514847 84.90407448216023 L 677.2783607791827 84.99372504209276 L 677.2267961400584 85.0831469765463 L 677.1732559905327 85.17233134340194 L 677.117745684576 85.2612692242973 L 677.0602707731728 85.34995172551838 L 677.0008370037659 85.438369978889 L 676.9394503196833 85.5265151426575 L 676.8761168595418 85.61437840238094 L 676.8108429566347 85.70195097180657 L 676.743635138298 85.78922409375042 L 676.6745001252576 85.87618904097305 L 676.6034448309571 85.96283711705216 L 676.5304763608667 86.0491596572524 L 676.4556020117725 86.13514802939166 L 676.3788292710473 86.22079363470438 L 676.300165815901 86.3060879087014 L 676.2196195126135 86.39102232202642 L 676.1371984157481 86.47558838130885 L 676.0529107673459 86.55977763001327 L 675.9667649961013 86.64358164928494 L 675.8787697165197 86.72699205879178 L 675.7889337280559 86.81000051756236 L 675.6972660142337 86.89259872481995 L 675.6037757417481 86.97477842081267 L 675.5084722595486 87.05653138763941 L 675.4113650979037 87.1378494500716 L 675.312463967449 87.21872447637077 L 675.2117787582149 87.29914837910168 L 675.1093195386384 87.3791131159411 L 675.0050965545562 87.45861069048195 L 674.8991202281798 87.53763315303304 L 674.7914011570535 87.61617260141396 L 674.6819501129947 87.69422118174533 L 674.5707780410166 87.77177108923416 L 674.4578960582337 87.84881456895431 L 674.3433154527502 87.92534391662203 L 674.2270476825313 88.0013514793663 L 674.109104374257 88.07682965649423 L 673.9894973221598 88.15177090025095 L 673.8682384868454 88.22616771657458 L 673.7453399940961 88.30001266584546 L 673.6208141336589 88.37329836363021 L 673.494673358016 88.44601748142011 L 673.36693028114 88.51816274736402 L 673.2375976772319 88.58972694699541 L 673.1066884794444 88.66070292395399 L 672.9742157785882 88.7310835807012 L 672.8401928218232 88.80086187923001 L 672.704633011333 88.87003084176872 L 672.5675499029859 88.93858355147874 L 672.4289572049786 89.00651315314619 L 672.2888687764652 89.07381285386752 L 672.1472986261718 89.14047592372876 L 672.0042609109958 89.20649569647847 L 671.859769934589 89.27186557019436 L 671.7138401459291 89.33657900794358 L 671.5664861378731 89.40062953843625 L 671.417722645699 89.4640107566727 L 671.2675645456322 89.52671632458394 L 671.1160268533574 89.58873997166543 L 670.9631247225178 89.65007549560413 L 670.8088734431989 89.71071676289877 L 670.6532884403999 89.77065770947317 L 670.4963852724918 89.82989234128259 L 670.3381796296604 89.88841473491324 L 670.1786873323382 89.9462190381745 L 670.0179243296221 90.00329947068425 L 669.8559066976783 90.05965032444678 L 669.692650638135 90.11526596442367 L 669.5281724764621 90.17014082909728 L 669.3624886603387 90.22426943102687 L 669.1956157580084 90.27764635739734 L 669.0275704566224 90.33026627056056 L 668.8583695605707 90.38212390856904 L 668.688029989802 90.4332140857022 L 668.5165687781313 90.48353169298491 L 668.3440030715369 90.53307169869838 L 668.1703501264458 90.58182914888329 L 667.9956273080077 90.62979916783527 L 667.8198520883589 90.67697695859242 L 667.6430420448747 90.72335780341494 L 667.4652148584124 90.76893706425703 L 667.2863883115422 90.81371018323057 L 667.1065802867699 90.85767268306098 L 666.9258087647481 90.90082016753492 L 666.7440918224784 90.94314832193989 L 666.5614476315036 90.98465291349572 L 666.3778944560904 91.02532979177784 L 666.1934506514037 91.06517488913234 L 666.00813466167 91.10418422108266 L 665.821965018334 91.14235388672813 L 665.6349603382049 91.17968006913398 L 665.4471393215947 91.2161590357131 L 665.2585207504487 91.25178713859921 L 665.0691234864669 91.28656081501171 L 664.8789664692176 91.32047658761195 L 664.6880687142443 91.35353106485093 L 664.4964493111634 91.38572094130845 L 664.3041274217553 91.41704299802372 L 664.111122278049 91.44749410281716 L 663.9174531803978 91.47707121060365 L 663.7231394955502 91.50577136369708 L 663.5282006547126 91.53359169210606 L 663.3326561516068 91.5605294138209 L 663.1365255405201 91.5865818350919 L 662.9398284343501 91.61174635069867 L 662.7425845026437 91.63602044421056 L 662.5448134696295 91.65940168823849 L 662.3465351122461 91.68188774467754 L 662.1477692581639 91.70347636494078 L 661.9485357838028 91.7241653901842 L 661.7488546123441 91.74395275152249 L 661.5487457117385 91.76283647023602 L 661.3482290927096 91.78081465796868 L 661.147324806752 91.79788551691664 L 660.9460529441267 91.81404734000823 L 660.7444336318525 91.82929851107464 L 660.5424870316925 91.84363750501146 L 660.3402333381385 91.85706288793124 L 660.1376927763913 91.86957331730687 L 659.9348856003381 91.88116754210586 L 659.7318320905279 91.89184440291535 L 659.5285525521421 91.9016028320582 L 659.3250673129652 91.91044185369962 L 659.1213967213516 91.9183605839448 L 658.9175611441909 91.92535823092732 L 658.7135809648707 91.9314340948883 L 658.5094765812391 91.93658756824642 L 658.3052684035644 91.94081813565865 L 658.100976852494 91.94412537407175 L 657.8966223570129 91.94650895276463 L 657.6922253524004 91.94796863338145 L 657.4878062781866 91.94850426995532 L 657.2833855761085 91.94811580892306 L 657.0789836880659 91.94680328913043 L 656.8746210540775 91.94456684182832 L 656.6703181102363 91.94140669065959 L 656.4660952866664 91.93732315163675 L 656.2619730054798 91.93231663311026 L 656.0579716787348 91.92638763572783 L 655.8541117063941 91.91953675238425 L 655.6504134742847 91.91176466816215 L 655.4468973520604 91.90307216026346 L 655.2435836911637 91.89346009793174 L 655.0404928227913 91.8829294423652 L 654.8376450558608 91.87148124662065 L 654.6350606749797 91.85911665550807 L 654.4327599384175 91.84583690547633 L 654.230763076079 91.83164332448933 L 654.0290902874824 91.81653733189336 L 653.8277617397383 91.80052043827507 L 653.6267975655338 91.78359424531048 L 653.4262178611189 91.7657604456048 L 653.2260426842967 91.74702082252311 L 653.0262920524182 91.72737725001213 L 652.82698594038 91.70683169241272 L 652.6281442786275 91.68538620426354 L 652.4297869511608 91.66304293009551 L 652.2319337935478 91.63980410421743 L 652.034604590939 91.61567205049255 L 651.8378190760903 91.5906491821061 L 651.6415969273893 91.56473800132409 L 651.4459577668873 91.53794109924299 L 651.2509211583374 91.51026115553069 L 651.0565066052377 91.48170093815847 L 650.8627335488817 91.4522633031243 L 650.6696213664136 91.42195119416714 L 650.4771893688905 91.39076764247261 L 650.285456799352 91.3587157663699 L 650.0944428308951 91.32579877101993 L 649.9041665647576 91.29201994809479 L 649.7146470284075 91.25738267544861 L 649.5259031736406 91.22189041677981 L 649.3379538746849 91.1855467212847 L 649.1508179263138 91.14835522330249 L 648.9645140419661 91.11031964195202 L 648.7790608518752 91.07144378075972 L 648.5944769012053 91.03173152727932 L 648.4107806481978 90.99118685270307 L 648.227990462325 90.94981381146462 L 648.0461246224529 90.90761654083366 L 647.8652013150141 90.86459926050206 L 647.6852386321885 90.820766272162 L 647.5062545700946 90.77612195907581 L 647.3282670269892 90.73067078563757 L 647.1512938014786 90.68441729692677 L 646.9753525907375 90.63736611825372 L 646.8004609887406 90.58952195469709 L 646.6266364845023 90.54088959063337 L 646.4538964603282 90.49147388925842 L 646.2822581900767 90.4412797921012 L 646.1117388374319 90.39031231852962 L 645.9423554541868 90.33857656524854 L 645.7741249785387 90.28607770579019 L 645.6070642333949 90.23282098999677 L 645.4411899246909 90.17881174349546 L 645.276518639719 90.12405536716591 L 645.1130668454707 90.06855733660014 L 644.9508508869893 90.01232320155493 L 644.7898869857352 89.95535858539695 L 644.6301912379646 89.89766918454032 L 644.4717796131191 89.83926076787708 L 644.3146679522291 89.7801391762002 L 644.15887196633 89.72031032161958 L 644.0044072348904 89.65978018697083 L 643.8512892042547 89.59855482521698 L 643.6995331860985 89.53664035884317 L 643.549154355897 89.47404297924444 L 643.4001677514079 89.41076894610661 L 643.2525882711677 89.34682458678024 L 643.1064306730012 89.28221629564798 L 642.9617095725466 89.21695053348512 L 642.8184394417933 89.15103382681346 L 642.6766346076349 89.08447276724877 L 642.5363092504367 89.01727401084152 L 642.3974774026175 88.94944427741135 L 642.2601529472464 88.88099034987508 L 642.1243496166544 88.81191907356842 L 641.9900809910615 88.74223735556144 L 641.8573604972183 88.67195216396787 L 641.7262014070636 88.60107052724832 L 641.5966168363973 88.52959953350738 L 641.4686197435681 88.45754632978485 L 641.3422229281789 88.38491812134107 L 641.2174390298059 88.31172217093638 L 641.0942805267348 88.2379657981048 L 640.9727597347135 88.16365637842215 L 640.8528888057197 88.08880134276848 L 640.7346797267465 88.01340817658499 L 640.6181443186033 87.93748441912544 L 640.5032942347339 87.86103766270233 L 640.3901409600508 87.7840755519276 L 640.2786958097872 87.70660578294817 L 640.1689699283654 87.6286361026764 L 640.060974288282 87.55017430801533 L 639.954719689011 87.47122824507906 L 639.8502167559237 87.39180580840808 L 639.7474759392265 87.31191494017986 L 639.6465075129155 87.23156362941468 L 639.5473215737491 87.15075991117664 L 639.4499280402383 87.06951186577021 L 639.3543366516558 86.98782761793225 L 639.2605569670603 86.90571533601947 L 639.1685983643424 86.82318323119163 L 639.0784700392858 86.74023955659044 L 638.9901810046476 86.65689260651422 L 638.903740089258 86.57315071558855 L 638.8191559371363 86.48902225793273 L 638.7364370066273 86.40451564632241 L 638.6555915695551 86.31963933134833 L 638.576627710396 86.23440180057128 L 638.4995533254703 86.14881157767327 L 638.424376122152 86.06287722160529 L 638.351103618099 85.97660732573132 L 638.2797431405005 85.89001051696908 L 638.2103018253449 85.80309545492726 L 638.1427866167057 85.71587083103964 L 638.0772042660477 85.62834536769593 L 638.0135613315513 85.54052781736951 L 637.9518641774566 85.45242696174225 L 637.892118973428 85.3640516108263 L 637.8343316939358 85.27541060208307 L 637.7785081176601 85.1865127995396 L 637.7246538269117 85.09736709290206 L 637.672774207075 85.0079823966668 L 637.6228744460686 84.918367649229 L 637.5749595338273 84.8285318119887 L 637.5290342618019 84.73848386845475 L 637.4851032224818 84.64823282334648 L 637.4431708089343 84.55778770169319 L 637.4032412143655 84.46715754793168 L 637.3653184317017 84.37635142500177 L 637.3294062531896 84.28537841344013 L 637.2955082700173 84.19424761047208 L 637.2636278719547 84.10296812910195 L 637.2337682470148 84.01154909720186 L 637.2059323811357 83.91999965659879 L 637.1801230578805 83.82832896216051 L 637.15634285816 83.73654618088008 L 637.1345941599744 83.64466049095914 L 637.1148791381755 83.55268108089011 L 637.0971997642489 83.46061714853734 L 637.0815578061174 83.36847790021736 L 637.0679548279636 83.2762725497782 L 637.0563921900741 83.18401031767809 L 637.0468710487031 83.09170043006333 L 637.0393923559567 82.99935211784579 L 637.033956859698 82.9069746157797 L 637.0305651034721 82.8145771615383 L 637.0292174264517 82.72216899479002" stroke-miterlimit="10" stroke-width="2.380272" stroke-dasharray=""/></g><g><g/><text fill="black" stroke="none" font-family="sans-serif" font-size="9pt" font-style="normal" font-weight="normal" text-decoration="normal" x="635.4666446875" y="106.972224" text-anchor="start" dominant-baseline="alphabetic">Registry</text></g><g><path fill="white" stroke="black" paint-order="fill stroke markers" d=" M 833.5195004375 51.945935999999996 A 7.980911999999999 7.980911999999999 0 1 1 833.5194964470444 51.937955089330146 M 825.5385884375 59.926848 L 825.5385884375 77.00880000000001 M 815.4574364375001 66.087552 L 835.6197404375 66.087552 M 825.5385884375 77.00880000000001 L 815.4574364375001 92.970624 M 825.5385884375 77.00880000000001 L 835.6197404375 92.970624" stroke-miterlimit="10" stroke-width="2.380272" stroke-dasharray=""/></g><g><g/><text fill="black" stroke="none" font-family="sans-serif" font-size="9pt" font-style="normal" font-weight="normal" text-decoration="normal" x="794.5190571875" y="106.972224" text-anchor="start" dominant-baseline="alphabetic">Component</text></g></g><g><path fill="white" stroke="black" paint-order="fill stroke markers" d=" M 79.9614384375 213.38438399999998 L 93.96303843749999 213.38438399999998 L 93.96303843749999 1161.2927040000009 L 79.9614384375 1161.2927040000009 L 79.9614384375 213.38438399999998" stroke-miterlimit="10" stroke-width="1.1668" stroke-dasharray=""/><path fill="white" stroke="black" paint-order="fill stroke markers" d=" M 211.3279821875 266.590464 L 225.3295821875 266.590464 L 225.3295821875 1059.081024000001 L 211.3279821875 1059.081024000001 L 211.3279821875 266.590464" stroke-miterlimit="10" stroke-width="1.1668" stroke-dasharray=""/><path fill="white" stroke="black" paint-order="fill stroke markers" d=" M 336.0265571875 305.794944 L 350.0281571875 305.794944 L 350.0281571875 756.6464640000004 L 336.0265571875 756.6464640000004 L 336.0265571875 305.794944" stroke-miterlimit="10" stroke-width="1.1668" stroke-dasharray=""/><path fill="white" stroke="black" paint-order="fill stroke markers" d=" M 475.4028665625 450.01142400000003 L 489.40446656250003 450.01142400000003 L 489.40446656250003 735.6440640000003 L 475.4028665625 735.6440640000003 L 475.4028665625 450.01142400000003" stroke-miterlimit="10" stroke-width="1.1668" stroke-dasharray=""/><path fill="white" stroke="black" paint-order="fill stroke markers" d=" M 650.4707275 503.2175040000001 L 664.4723275 503.2175040000001 L 664.4723275 637.6328640000002 L 650.4707275 637.6328640000002 L 650.4707275 503.2175040000001" stroke-miterlimit="10" stroke-width="1.1668" stroke-dasharray=""/><path fill="white" stroke="black" paint-order="fill stroke markers" d=" M 597.5128421875 139.175904 L 704.8287728125 139.175904 L 717.4302128125 151.777344 L 717.4302128125 213.38438399999998 L 597.5128421875 213.38438399999998 L 597.5128421875 139.175904 M 704.8287728125 139.175904 L 704.8287728125 151.777344 L 717.4302128125 151.777344" stroke-miterlimit="10" stroke-width="1.1668" stroke-dasharray=""/><g><text fill="black" stroke="none" font-family="sans-serif" font-size="9pt" font-style="normal" font-weight="normal" text-decoration="normal" x="617.1150821875" y="158.77814399999997" text-anchor="start" dominant-baseline="alphabetic">Use ICG:</text><text fill="black" stroke="none" font-family="sans-serif" font-size="9pt" font-style="normal" font-weight="normal" text-decoration="normal" x="617.1150821875" y="172.77974399999997" text-anchor="start" dominant-baseline="alphabetic"> Incremental</text><text fill="black" stroke="none" font-family="sans-serif" font-size="9pt" font-style="normal" font-weight="normal" text-decoration="normal" x="617.1150821875" y="186.78134399999996" text-anchor="start" dominant-baseline="alphabetic"> Computational</text><text fill="black" stroke="none" font-family="sans-serif" font-size="9pt" font-style="normal" font-weight="normal" text-decoration="normal" x="617.1150821875" y="200.78294399999996" text-anchor="start" dominant-baseline="alphabetic"> Graph</text></g><path fill="white" stroke="black" paint-order="fill stroke markers" d=" M 757.9070515625001 153.177504 L 880.5686853125001 153.177504 L 893.1701253125001 165.778944 L 893.1701253125001 213.38438399999998 L 757.9070515625001 213.38438399999998 L 757.9070515625001 153.177504 M 880.5686853125001 153.177504 L 880.5686853125001 165.778944 L 893.1701253125001 165.778944" stroke-miterlimit="10" stroke-width="1.1668" stroke-dasharray=""/><g><text fill="black" stroke="none" font-family="sans-serif" font-size="9pt" font-style="normal" font-weight="normal" text-decoration="normal" x="777.5092915625" y="172.77974399999997" text-anchor="start" dominant-baseline="alphabetic">Verification and/or</text><text fill="black" stroke="none" font-family="sans-serif" font-size="9pt" font-style="normal" font-weight="normal" text-decoration="normal" x="777.5092915625" y="186.78134399999996" text-anchor="start" dominant-baseline="alphabetic">Termination;</text><text fill="black" stroke="none" font-family="sans-serif" font-size="9pt" font-style="normal" font-weight="normal" text-decoration="normal" x="777.5092915625" y="200.78294399999996" text-anchor="start" dominant-baseline="alphabetic">Run in threads</text></g><path fill="white" stroke="black" paint-order="fill stroke markers" d=" M 414.77212968750007 167.179104 L 537.4337634375 167.179104 L 550.0352034375001 179.780544 L 550.0352034375001 213.38438399999998 L 414.77212968750007 213.38438399999998 L 414.77212968750007 167.179104 M 537.4337634375 167.179104 L 537.4337634375 179.780544 L 550.0352034375001 179.780544" stroke-miterlimit="10" stroke-width="1.1668" stroke-dasharray=""/><g><text fill="black" stroke="none" font-family="sans-serif" font-size="9pt" font-style="normal" font-weight="normal" text-decoration="normal" x="434.3743696875" y="186.78134399999996" text-anchor="start" dominant-baseline="alphabetic">Verification and/or</text><text fill="black" stroke="none" font-family="sans-serif" font-size="9pt" font-style="normal" font-weight="normal" text-decoration="normal" x="434.3743696875" y="200.78294399999996" text-anchor="start" dominant-baseline="alphabetic">Termination</text></g><path fill="white" stroke="black" paint-order="fill stroke markers" d=" M 283.40851562500006 181.180704 L 390.04475875 181.180704 L 402.64619875000005 193.782144 L 402.64619875000005 213.38438399999998 L 283.40851562500006 213.38438399999998 L 283.40851562500006 181.180704 M 390.04475875 181.180704 L 390.04475875 193.782144 L 402.64619875000005 193.782144" stroke-miterlimit="10" stroke-width="1.1668" stroke-dasharray=""/><g><text fill="black" stroke="none" font-family="sans-serif" font-size="9pt" font-style="normal" font-weight="normal" text-decoration="normal" x="303.010755625" y="200.78294399999996" text-anchor="start" dominant-baseline="alphabetic">dotc, scalac, ...</text></g><g><g><path fill="none" stroke="none"/><rect fill="white" stroke="none" x="113.5198796875" y="234.386784" width="78.25126125" height="18.20208"/></g><g><path fill="none" stroke="none"/><rect fill="white" stroke="none" x="113.5198796875" y="248.388384" width="77.577433125" height="18.20208"/></g><text fill="black" stroke="none" font-family="sans-serif" font-size="9pt" font-style="normal" font-weight="normal" text-decoration="normal" x="115.6201196875" y="246.988224" text-anchor="start" dominant-baseline="alphabetic">Update Code;</text><text fill="black" stroke="none" font-family="sans-serif" font-size="9pt" font-style="normal" font-weight="normal" text-decoration="normal" x="115.6201196875" y="260.989824" text-anchor="start" dominant-baseline="alphabetic">Run Frontend</text></g><g><path fill="none" stroke="black" paint-order="fill stroke markers" d=" M 93.96303843749999 266.590464 L 211.3279821875 266.590464" stroke-miterlimit="10" stroke-width="1.1668" stroke-dasharray=""/><path fill="black" stroke="none" paint-order="stroke fill markers" d=" M 199.6599821875 260.756464 L 211.3279821875 266.590464 L 199.6599821875 272.424464 Z"/></g><g><g><path fill="none" stroke="none"/><rect fill="white" stroke="none" x="241.89814218749999" y="287.59286399999996" width="77.559855" height="18.20208"/></g><text fill="black" stroke="none" font-family="sans-serif" font-size="9pt" font-style="normal" font-weight="normal" text-decoration="normal" x="243.9983821875" y="300.19430399999993" text-anchor="start" dominant-baseline="alphabetic">Run Compiler</text></g><g><path fill="none" stroke="black" paint-order="fill stroke markers" d=" M 225.3295821875 305.794944 L 336.0265571875 305.794944" stroke-miterlimit="10" stroke-width="1.1668" stroke-dasharray=""/><path fill="black" stroke="none" paint-order="stroke fill markers" d=" M 324.35855718749997 299.960944 L 336.0265571875 305.794944 L 324.35855718749997 311.628944 Z"/></g><g><g><path fill="none" stroke="none"/><rect fill="white" stroke="none" x="366.5967171875001" y="326.79734399999995" width="61.56376125" height="18.20208"/></g><text fill="black" stroke="none" font-family="sans-serif" font-size="9pt" font-style="normal" font-weight="normal" text-decoration="normal" x="368.69695718750006" y="339.3987839999999" text-anchor="start" dominant-baseline="alphabetic">Typecheck</text></g><g><path fill="none" stroke="black" paint-order="fill stroke markers" d=" M 350.0281571875 344.999424 L 406.0345571875 344.999424 L 406.0345571875 359.001024 L 350.0281571875 359.001024" stroke-miterlimit="10" stroke-width="1.1668" stroke-dasharray="5.60064"/><path fill="black" stroke="none" paint-order="stroke fill markers" d=" M 361.69615718750003 353.16702399999997 L 350.0281571875 359.001024 L 361.69615718750003 364.835024 Z"/></g><g><g><path fill="none" stroke="none"/><rect fill="white" stroke="none" x="366.5967171875" y="417.807744" width="92.237589375" height="18.20208"/></g><g><path fill="none" stroke="none"/><rect fill="white" stroke="none" x="366.5967171875" y="431.809344" width="74.4426675" height="18.20208"/></g><text fill="black" stroke="none" font-family="sans-serif" font-size="9pt" font-style="normal" font-weight="normal" text-decoration="normal" x="368.6969571875" y="430.409184" text-anchor="start" dominant-baseline="alphabetic">Compilation Unit</text><text fill="black" stroke="none" font-family="sans-serif" font-size="9pt" font-style="normal" font-weight="normal" text-decoration="normal" x="368.6969571875" y="444.410784" text-anchor="start" dominant-baseline="alphabetic">(xlang.Trees)</text></g><g><path fill="none" stroke="black" paint-order="fill stroke markers" d=" M 350.0281571875 450.01142400000003 L 475.4028665625 450.01142400000003" stroke-miterlimit="10" stroke-width="1.1668" stroke-dasharray=""/><path fill="black" stroke="none" paint-order="stroke fill markers" d=" M 463.7348665625 444.17742400000003 L 475.4028665625 450.01142400000003 L 463.7348665625 455.84542400000004 Z"/></g><g><g><path fill="none" stroke="none"/><rect fill="white" stroke="none" x="516.48579453125" y="471.01382400000006" width="74.23173" height="18.20208"/></g><g><path fill="none" stroke="none"/><rect fill="white" stroke="none" x="516.48579453125" y="485.01542400000005" width="106.903605" height="18.20208"/></g><text fill="black" stroke="none" font-family="sans-serif" font-size="9pt" font-style="normal" font-weight="normal" text-decoration="normal" x="518.58603453125" y="483.615264" text-anchor="start" dominant-baseline="alphabetic">Register new</text><text fill="black" stroke="none" font-family="sans-serif" font-size="9pt" font-style="normal" font-weight="normal" text-decoration="normal" x="518.58603453125" y="497.616864" text-anchor="start" dominant-baseline="alphabetic">FunDef &amp; ClassDef</text></g><g><path fill="none" stroke="black" paint-order="fill stroke markers" d=" M 489.40446656250003 503.2175040000001 L 650.4707275 503.2175040000001" stroke-miterlimit="10" stroke-width="1.1668" stroke-dasharray=""/><path fill="none" stroke="black" paint-order="fill stroke markers" d=" M 638.8027275 497.3835040000001 L 650.4707275 503.2175040000001 L 638.8027275 509.0515040000001" stroke-miterlimit="10" stroke-width="1.1668" stroke-dasharray=""/></g><g><g><path fill="none" stroke="none"/><rect fill="white" stroke="none" x="681.0408875" y="524.2199040000002" width="104.905558125" height="18.20208"/></g><g><path fill="none" stroke="none"/><rect fill="white" stroke="none" x="681.0408875" y="538.2215040000002" width="88.903605" height="18.20208"/></g><g><path fill="none" stroke="none"/><rect fill="white" stroke="none" x="681.0408875" y="552.2231040000003" width="130.956339375" height="18.20208"/></g><text fill="black" stroke="none" font-family="sans-serif" font-size="9pt" font-style="normal" font-weight="normal" text-decoration="normal" x="683.1411275" y="536.8213440000002" text-anchor="start" dominant-baseline="alphabetic">Use ICG to identify</text><text fill="black" stroke="none" font-family="sans-serif" font-size="9pt" font-style="normal" font-weight="normal" text-decoration="normal" x="683.1411275" y="550.8229440000002" text-anchor="start" dominant-baseline="alphabetic">what is ready or</text><text fill="black" stroke="none" font-family="sans-serif" font-size="9pt" font-style="normal" font-weight="normal" text-decoration="normal" x="683.1411275" y="564.8245440000003" text-anchor="start" dominant-baseline="alphabetic">need to be recomputed.</text></g><g><path fill="none" stroke="black" paint-order="fill stroke markers" d=" M 664.4723275 570.4251840000001 L 720.4787275 570.4251840000001 L 720.4787275 584.4267840000001 L 664.4723275 584.4267840000001" stroke-miterlimit="10" stroke-width="1.1668" stroke-dasharray=""/><path fill="none" stroke="black" paint-order="fill stroke markers" d=" M 676.1403275 578.5927840000002 L 664.4723275 584.4267840000001 L 676.1403275 590.2607840000001" stroke-miterlimit="10" stroke-width="1.1668" stroke-dasharray=""/></g><g><g><path fill="none" stroke="none"/><rect fill="white" stroke="none" x="511.13618515625" y="605.4291840000002" width="117.60282375" height="18.20208"/></g><g><path fill="none" stroke="none"/><rect fill="white" stroke="none" x="511.13618515625" y="619.4307840000002" width="52.218058125" height="18.20208"/></g><text fill="black" stroke="none" font-family="sans-serif" font-size="9pt" font-style="normal" font-weight="normal" text-decoration="normal" x="513.23642515625" y="618.0306240000002" text-anchor="start" dominant-baseline="alphabetic">Option[self-contained</text><text fill="black" stroke="none" font-family="sans-serif" font-size="9pt" font-style="normal" font-weight="normal" text-decoration="normal" x="513.23642515625" y="632.0322240000003" text-anchor="start" dominant-baseline="alphabetic">program]</text></g><g><path fill="none" stroke="black" paint-order="fill stroke markers" d=" M 650.4707275 637.6328640000002 L 489.40446656250003 637.6328640000002" stroke-miterlimit="10" stroke-width="1.1668" stroke-dasharray="5.60064"/><path fill="black" stroke="none" paint-order="stroke fill markers" d=" M 501.07246656250004 631.7988640000002 L 489.40446656250003 637.6328640000002 L 501.07246656250004 643.4668640000001 Z"/></g><g><g><path fill="none" stroke="none"/><rect fill="white" stroke="none" x="512.9738265625001" y="696.4395840000002" width="288.995401875" height="18.20208"/></g><text fill="black" stroke="none" font-family="sans-serif" font-size="9pt" font-style="normal" font-weight="normal" text-decoration="normal" x="515.0740665625001" y="709.0410240000002" text-anchor="start" dominant-baseline="alphabetic">transform trees, generate VCs, send to the solvers, ...</text></g><g><path fill="none" stroke="black" paint-order="fill stroke markers" d=" M 489.40446656250003 714.6416640000002 L 825.5385884375 714.6416640000002" stroke-miterlimit="10" stroke-width="1.1668" stroke-dasharray=""/><path fill="black" stroke="none" paint-order="stroke fill markers" d=" M 813.8705884375 708.8076640000003 L 825.5385884375 714.6416640000002 L 813.8705884375 720.4756640000002 Z"/></g><path fill="white" stroke="black" paint-order="fill stroke markers" d=" M 205.7273421875 777.6488640000003 L 825.5385884375 777.6488640000003 L 838.1400284375001 790.2503040000004 L 838.1400284375001 823.8541440000004 L 205.7273421875 823.8541440000004 L 205.7273421875 777.6488640000003 M 825.5385884375 777.6488640000003 L 825.5385884375 790.2503040000004 L 838.1400284375001 790.2503040000004" stroke-miterlimit="10" stroke-width="1.1668" stroke-dasharray=""/><g><text fill="black" stroke="none" font-family="sans-serif" font-size="9pt" font-style="normal" font-weight="normal" text-decoration="normal" x="341.8282165625001" y="797.2511040000004" text-anchor="start" dominant-baseline="alphabetic">The "loop" is executed once more to trigger the verification of</text><text fill="black" stroke="none" font-family="sans-serif" font-size="9pt" font-style="normal" font-weight="normal" text-decoration="normal" x="341.8282165625001" y="811.2527040000004" text-anchor="start" dominant-baseline="alphabetic">non-sealed classes now that all the overridden functions are known.</text></g><g><g><path fill="none" stroke="none"/><rect fill="white" stroke="none" x="272.91970468750003" y="844.8565440000004" width="161.893839375" height="18.20208"/></g><text fill="black" stroke="none" font-family="sans-serif" font-size="9pt" font-style="normal" font-weight="normal" text-decoration="normal" x="275.0199446875" y="857.4579840000005" text-anchor="start" dominant-baseline="alphabetic">wait for Component's Reports</text></g><g><path fill="none" stroke="black" paint-order="fill stroke markers" d=" M 225.3295821875 863.0586240000005 L 482.4036665625 863.0586240000005" stroke-miterlimit="10" stroke-width="1.1668" stroke-dasharray=""/><path fill="black" stroke="none" paint-order="stroke fill markers" d=" M 470.7356665625 857.2246240000005 L 482.4036665625 863.0586240000005 L 470.7356665625 868.8926240000004 Z"/></g><g><g><path fill="none" stroke="none"/><rect fill="white" stroke="none" x="625.861121875" y="884.0610240000005" width="56.22001125" height="18.20208"/></g><text fill="black" stroke="none" font-family="sans-serif" font-size="9pt" font-style="normal" font-weight="normal" text-decoration="normal" x="627.961361875" y="896.6624640000006" text-anchor="start" dominant-baseline="alphabetic">Reports...</text></g><g><path fill="none" stroke="black" paint-order="fill stroke markers" d=" M 825.5385884375 902.2631040000006 L 482.4036665625 902.2631040000006" stroke-miterlimit="10" stroke-width="1.1668" stroke-dasharray=""/><path fill="black" stroke="none" paint-order="stroke fill markers" d=" M 494.0716665625 896.4291040000006 L 482.4036665625 902.2631040000006 L 494.0716665625 908.0971040000005 Z"/></g><g><g><path fill="none" stroke="none"/><rect fill="white" stroke="none" x="625.861121875" y="923.2655040000006" width="56.22001125" height="18.20208"/></g><text fill="black" stroke="none" font-family="sans-serif" font-size="9pt" font-style="normal" font-weight="normal" text-decoration="normal" x="627.961361875" y="935.8669440000007" text-anchor="start" dominant-baseline="alphabetic">Reports...</text></g><g><path fill="none" stroke="black" paint-order="fill stroke markers" d=" M 825.5385884375 941.4675840000007 L 482.4036665625 941.4675840000007" stroke-miterlimit="10" stroke-width="1.1668" stroke-dasharray=""/><path fill="black" stroke="none" paint-order="stroke fill markers" d=" M 494.0716665625 935.6335840000007 L 482.4036665625 941.4675840000007 L 494.0716665625 947.3015840000006 Z"/></g><g><g><path fill="none" stroke="none"/><rect fill="white" stroke="none" x="625.861121875" y="962.4699840000007" width="56.22001125" height="18.20208"/></g><text fill="black" stroke="none" font-family="sans-serif" font-size="9pt" font-style="normal" font-weight="normal" text-decoration="normal" x="627.961361875" y="975.0714240000008" text-anchor="start" dominant-baseline="alphabetic">Reports...</text></g><g><path fill="none" stroke="black" paint-order="fill stroke markers" d=" M 825.5385884375 980.6720640000008 L 482.4036665625 980.6720640000008" stroke-miterlimit="10" stroke-width="1.1668" stroke-dasharray=""/><path fill="black" stroke="none" paint-order="stroke fill markers" d=" M 494.0716665625 974.8380640000008 L 482.4036665625 980.6720640000008 L 494.0716665625 986.5060640000007 Z"/></g><g><g><path fill="none" stroke="none"/><rect fill="white" stroke="none" x="322.42263437500003" y="1001.6744640000009" width="62.88798" height="18.20208"/></g><text fill="black" stroke="none" font-family="sans-serif" font-size="9pt" font-style="normal" font-weight="normal" text-decoration="normal" x="324.522874375" y="1014.2759040000009" text-anchor="start" dominant-baseline="alphabetic">All Reports</text></g><g><path fill="none" stroke="black" paint-order="fill stroke markers" d=" M 482.4036665625 1019.8765440000009 L 225.3295821875 1019.8765440000009" stroke-miterlimit="10" stroke-width="1.1668" stroke-dasharray=""/><path fill="black" stroke="none" paint-order="stroke fill markers" d=" M 236.9975821875 1014.0425440000009 L 225.3295821875 1019.8765440000009 L 236.9975821875 1025.710544000001 Z"/></g><g><g><path fill="none" stroke="none"/><rect fill="white" stroke="none" x="110.5315984375" y="1040.878944000001" width="84.22782375" height="18.20208"/></g><text fill="black" stroke="none" font-family="sans-serif" font-size="9pt" font-style="normal" font-weight="normal" text-decoration="normal" x="112.6318384375" y="1053.480384000001" text-anchor="start" dominant-baseline="alphabetic">Display reports</text></g><g><path fill="none" stroke="black" paint-order="fill stroke markers" d=" M 211.3279821875 1059.081024000001 L 93.96303843749999 1059.081024000001" stroke-miterlimit="10" stroke-width="1.1668" stroke-dasharray=""/><path fill="black" stroke="none" paint-order="stroke fill markers" d=" M 105.6310384375 1053.247024000001 L 93.96303843749999 1059.081024000001 L 105.6310384375 1064.915024000001 Z"/></g><path fill="white" stroke="black" paint-order="fill stroke markers" d=" M 14.001599999999998 1080.083424000001 L 147.321436875 1080.083424000001 L 159.922876875 1092.684864000001 L 159.922876875 1126.288704000001 L 14.001599999999998 1126.288704000001 L 14.001599999999998 1080.083424000001 M 147.321436875 1080.083424000001 L 147.321436875 1092.684864000001 L 159.922876875 1092.684864000001" stroke-miterlimit="10" stroke-width="1.1668" stroke-dasharray=""/><g><text fill="black" stroke="none" font-family="sans-serif" font-size="9pt" font-style="normal" font-weight="normal" text-decoration="normal" x="33.60383999999999" y="1099.685664000001" text-anchor="start" dominant-baseline="alphabetic">under --watch mode</text><text fill="black" stroke="none" font-family="sans-serif" font-size="9pt" font-style="normal" font-weight="normal" text-decoration="normal" x="33.60383999999999" y="1113.687264000001" text-anchor="start" dominant-baseline="alphabetic">the process restart.</text></g><path fill="white" stroke="black" paint-order="fill stroke markers" d=" M 519.140771875 1066.081824000001 L 783.200843125 1066.081824000001 L 795.802283125 1078.683264000001 L 795.802283125 1126.288704000001 L 519.140771875 1126.288704000001 L 519.140771875 1066.081824000001 M 783.200843125 1066.081824000001 L 783.200843125 1078.683264000001 L 795.802283125 1078.683264000001" stroke-miterlimit="10" stroke-width="1.1668" stroke-dasharray=""/><g><text fill="black" stroke="none" font-family="sans-serif" font-size="9pt" font-style="normal" font-weight="normal" text-decoration="normal" x="538.743011875" y="1085.684064000001" text-anchor="start" dominant-baseline="alphabetic">The Registry's ICG is the center piece that</text><text fill="black" stroke="none" font-family="sans-serif" font-size="9pt" font-style="normal" font-weight="normal" text-decoration="normal" x="538.743011875" y="1099.685664000001" text-anchor="start" dominant-baseline="alphabetic">enables stainless to verify modified functions</text><text fill="black" stroke="none" font-family="sans-serif" font-size="9pt" font-style="normal" font-weight="normal" text-decoration="normal" x="538.743011875" y="1113.687264000001" text-anchor="start" dominant-baseline="alphabetic">when the code is updated.</text></g><g><path fill="white" stroke="black" paint-order="fill stroke markers" d=" M 294.0217571875 396.80534400000005 L 344.7124571875 396.80534400000005 L 353.1134171875 388.40438400000005 L 353.1134171875 380.00342400000005 L 294.0217571875 380.00342400000005" stroke-miterlimit="10" stroke-width="2.0002285714285715" stroke-dasharray=""/><path fill="none" stroke="black" paint-order="fill stroke markers" d=" M 294.0217571875 380.00342400000005 L 888.5457884375 380.00342400000005 L 888.5457884375 756.6464640000004 L 294.0217571875 756.6464640000004 L 294.0217571875 380.00342400000005 Z" stroke-miterlimit="10" stroke-width="2.0002285714285715" stroke-dasharray=""/><text fill="black" stroke="none" font-family="sans-serif" font-size="7.2pt" font-style="normal" font-weight="bold" text-decoration="normal" x="308.0233571875" y="391.20470400000005" text-anchor="start" dominant-baseline="alphabetic">loop</text><text fill="black" stroke="none" font-family="sans-serif" font-size="7.2pt" font-style="normal" font-weight="bold" text-decoration="normal" x="367.1150171875" y="391.20470400000005" text-anchor="start" dominant-baseline="alphabetic">[for each compilation unit]</text></g><g><path fill="white" stroke="black" paint-order="fill stroke markers" d=" M 433.3980665625 675.4371840000002 L 478.0829071875 675.4371840000002 L 486.4838671875 667.0362240000003 L 486.4838671875 658.6352640000002 L 433.3980665625 658.6352640000002" stroke-miterlimit="10" stroke-width="2.0002285714285715" stroke-dasharray=""/><path fill="none" stroke="black" paint-order="fill stroke markers" d=" M 433.3980665625 658.6352640000002 L 874.5441884375 658.6352640000002 L 874.5441884375 735.6440640000003 L 433.3980665625 735.6440640000003 L 433.3980665625 658.6352640000002 Z" stroke-miterlimit="10" stroke-width="2.0002285714285715" stroke-dasharray=""/><text fill="black" stroke="none" font-family="sans-serif" font-size="7.2pt" font-style="normal" font-weight="bold" text-decoration="normal" x="447.3996665625" y="669.8365440000002" text-anchor="start" dominant-baseline="alphabetic">opt</text><text fill="black" stroke="none" font-family="sans-serif" font-size="7.2pt" font-style="normal" font-weight="bold" text-decoration="normal" x="500.4854671875" y="669.8365440000002" text-anchor="start" dominant-baseline="alphabetic">[solve]</text></g></g><g/><g/><g/><g/><g/><g/></g></svg>